<svg width="45" height="45" viewBox="0 0 45 45" fill="none" xmlns="http://www.w3.org/2000/svg">
<g clip-path="url(#clip0_255_380)">
<path d="M7 5C6.46957 5 5.96086 5.21071 5.58579 5.58579C5.21071 5.96086 5 6.46957 5 7V15H15V5H7ZM12.5 12.5H7.5V7.5H12.5V12.5Z" fill="#9B9B9B"/>
<path d="M5 38C5 38.5304 5.21071 39.0391 5.58579 39.4142C5.96086 39.7893 6.46957 40 7 40H15V30H5V38ZM7.5 32.5H12.5V37.5H7.5V32.5Z" fill="#9B9B9B"/>
<path d="M30 40H38C38.5304 40 39.0391 39.7893 39.4142 39.4142C39.7893 39.0391 40 38.5304 40 38V30H30V40ZM32.5 32.5H37.5V37.5H32.5V32.5Z" fill="#9B9B9B"/>
<path d="M38 5H30V15H40V7C40 6.46957 39.7893 5.96086 39.4142 5.58579C39.0391 5.21071 38.5304 5 38 5ZM37.5 12.5H32.5V7.5H37.5V12.5Z" fill="#9B9B9B"/>
<path d="M25 12.5V10H20V15H22.5V12.5H25Z" fill="#9B9B9B"/>
<path d="M15 15H17.5V17.5H15V15Z" fill="#9B9B9B"/>
<path d="M17.5 17.5H22.5V20H17.5V17.5Z" fill="#9B9B9B"/>
<path d="M25 7.5V10H27.5V5H17.5V10H20V7.5H25Z" fill="#9B9B9B"/>
<path d="M5 17.5H7.5V22.5H5V17.5Z" fill="#9B9B9B"/>
<path d="M15 20V22.5H12.5V17.5H10V22.5H7.5V25H5V27.5H10V25H12.5V27.5H15V25H17.5V20H15Z" fill="#9B9B9B"/>
<path d="M25 20H27.5V22.5H30V20H32.5V17.5H27.5V12.5H25V15H22.5V17.5H25V20Z" fill="#9B9B9B"/>
<path d="M22.5 37.5H17.5V40H27.5V37.5H25V35H22.5V37.5Z" fill="#9B9B9B"/>
<path d="M27.5 25V22.5H25V20H22.5V22.5H20V25H22.5V27.5H25V25H27.5Z" fill="#9B9B9B"/>
<path d="M37.5 25H40V27.5H37.5V25Z" fill="#9B9B9B"/>
<path d="M27.5 25H35V27.5H27.5V25Z" fill="#9B9B9B"/>
<path d="M37.5 17.5H35V20H32.5V22.5H35V25H37.5V22.5H40V20H37.5V17.5Z" fill="#9B9B9B"/>
<path d="M25 27.5H27.5V35H25V27.5Z" fill="#9B9B9B"/>
<path d="M17.5 35H20V32.5H22.5V30H20V25H17.5V35Z" fill="#9B9B9B"/>
</g>
<defs>
<clipPath id="clip0_255_380">
<rect width="45" height="45" fill="white"/>
</clipPath>
</defs>
</svg>
