<svg width="88" height="88" viewBox="0 0 88 88" fill="none" xmlns="http://www.w3.org/2000/svg">
<circle cx="44" cy="44" r="43.5" fill="#FF9D33" fill-opacity="0.3" stroke="black"/>
<path d="M57.8123 13.9863L54.0001 22.1616" stroke="#FF9D33" stroke-width="3" stroke-linecap="round"/>
<g clip-path="url(#clip0_689_12)">
<path d="M50.8964 46.3828L50.75 46.5292V46.7363V71.4863C50.75 72.5472 50.3286 73.5646 49.5784 74.3148C48.8283 75.0649 47.8109 75.4863 46.75 75.4863H42.25C41.1891 75.4863 40.1717 75.0649 39.4216 74.3148C38.6714 73.5646 38.25 72.5472 38.25 71.4863V46.7363V46.5292L38.1036 46.3828L33.75 42.0292V38.2363H55.25V42.0292L50.8964 46.3828ZM41.75 48.9863V51.2363C41.75 51.9657 42.0397 52.6651 42.5555 53.1809C43.0712 53.6966 43.7707 53.9863 44.5 53.9863C45.2293 53.9863 45.9288 53.6966 46.4445 53.1809C46.9603 52.6651 47.25 51.9657 47.25 51.2363V48.9863C47.25 48.257 46.9603 47.5575 46.4445 47.0418C45.9288 46.5261 45.2293 46.2363 44.5 46.2363C43.7707 46.2363 43.0712 46.5261 42.5555 47.0418C42.0397 47.5575 41.75 48.257 41.75 48.9863ZM33.75 31.4863H55.25V34.9863H33.75V31.4863Z" fill="#FF9D33" stroke="black"/>
</g>
<path d="M43.9487 13V22.0204" stroke="#FF9D33" stroke-width="3" stroke-linecap="round"/>
<path d="M30 13.9863L33.8122 22.1616" stroke="#FF9D33" stroke-width="3" stroke-linecap="round"/>
<defs>
<clipPath id="clip0_689_12">
<rect width="45" height="45" fill="white" transform="translate(22 30.9863)"/>
</clipPath>
</defs>
</svg>
