<svg width="88" height="88" viewBox="0 0 88 88" fill="none" xmlns="http://www.w3.org/2000/svg">
<circle cx="44" cy="44" r="43.5" fill="#FF9D33" fill-opacity="0.3" stroke="black"/>
<path d="M44.9583 46.3333H44.9577C43.6552 46.3349 42.3651 46.0791 41.1618 45.5805C39.9584 45.082 38.8655 44.3505 37.9457 43.4282L37.9452 43.4277C36.1518 41.6343 35.0417 39.1558 35.0417 36.4167C35.0417 33.6775 36.1518 31.199 37.9452 29.4056C39.7408 27.6101 42.2193 26.5 44.9583 26.5C47.6974 26.5 50.1759 27.6101 51.9714 29.4056C53.7649 31.199 54.875 33.6775 54.875 36.4167C54.875 39.1558 53.7649 41.6343 51.9714 43.4277C50.1759 45.2232 47.6974 46.3333 44.9583 46.3333ZM64.9544 40.3781L64.9548 40.3786C65.8084 41.2322 66.3333 42.4085 66.3333 43.7083L66.3333 43.7093C66.3346 44.3279 66.2137 44.9405 65.9775 45.5122C65.7414 46.0839 65.3947 46.6033 64.9574 47.0407C64.52 47.4781 64.0006 47.8247 63.4289 48.0609C62.8572 48.297 62.2445 48.4179 61.626 48.4167L61.6242 48.4167C61.0057 48.4177 60.3931 48.2966 59.8215 48.0603C59.2499 47.8241 58.7306 47.4774 58.2933 47.0401C57.8559 46.6027 57.5092 46.0834 57.273 45.5118C57.0368 44.9402 56.9157 44.3276 56.9167 43.7091L56.9167 43.7073C56.9154 43.0888 57.0363 42.4761 57.2725 41.9044C57.5086 41.3328 57.8553 40.8133 58.2926 40.376C58.73 39.9386 59.2494 39.5919 59.8211 39.3558C60.3928 39.1197 61.0055 38.9988 61.624 39L61.6258 39C62.244 38.9991 62.8564 39.1203 63.4276 39.3568C63.9988 39.5933 64.5177 39.9404 64.9544 40.3781ZM55.2303 52.5487L55.5737 52.8311L55.8943 52.5231C56.9977 51.463 58.9468 50.6458 61.625 50.6458C63.7586 50.6458 65.4805 51.1929 66.6538 51.9807C67.8347 52.7736 68.4167 53.7732 68.4167 54.6917C68.4167 54.7432 68.3778 54.8979 68.0752 55.1284C67.7858 55.3489 67.3318 55.5764 66.716 55.7803C65.4899 56.1864 63.7223 56.4667 61.625 56.4667C60.3831 56.4667 59.3008 56.3748 58.3633 56.2269L57.7374 56.1283L57.7869 56.7599L57.8269 57.2689C57.8194 57.5558 57.6195 57.9408 57.0374 58.3843C56.4568 58.8265 55.5774 59.2608 54.4248 59.6419C52.125 60.4025 48.8381 60.9187 44.9583 60.9187C40.8158 60.9187 37.5317 60.4017 35.3013 59.6433C34.1838 59.2633 33.3566 58.8314 32.8188 58.3941C32.2941 57.9674 32.1029 57.5866 32.0903 57.2844L32.1675 56.7629L32.2687 56.0798L31.5882 56.1968C30.6227 56.3628 29.5218 56.4667 28.2917 56.4667C26.0482 56.4667 24.2835 56.1855 23.0977 55.7816C22.5025 55.5789 22.0787 55.3538 21.8139 55.1383C21.5432 54.918 21.5 54.7619 21.5 54.6917C21.5 53.7652 22.0589 52.767 23.2176 51.9791C24.3722 51.194 26.092 50.6458 28.2917 50.6458C30.9023 50.6458 32.8771 51.4677 34.006 52.5379L34.3289 52.844L34.6705 52.5588C36.8482 50.7404 40.3292 49.4167 44.9583 49.4167C49.4609 49.4167 53.0143 50.7261 55.2303 52.5487ZM31.6219 47.0377L31.6214 47.0381C30.7678 47.8917 29.5915 48.4167 28.2917 48.4167L28.2907 48.4167C27.6721 48.4179 27.0595 48.297 26.4878 48.0609C25.9161 47.8247 25.3967 47.4781 24.9593 47.0407C24.5219 46.6033 24.1753 46.0839 23.9391 45.5122C23.703 44.9405 23.5821 44.3279 23.5833 43.7093L23.5833 43.7075C23.5823 43.0891 23.7034 42.4765 23.9397 41.9049C24.1759 41.3333 24.5226 40.8139 24.9599 40.3766C25.3973 39.9393 25.9166 39.5925 26.4882 39.3563C27.0598 39.1201 27.6724 38.999 28.2909 39L28.2927 39C28.9112 38.9988 29.5239 39.1197 30.0956 39.3558C30.6672 39.5919 31.1867 39.9386 31.624 40.376C32.0614 40.8133 32.4081 41.3328 32.6442 41.9044C32.8803 42.4761 33.0012 43.0888 33 43.7073L33 43.7091C33.0009 44.3274 32.8797 44.9397 32.6432 45.5109C32.4067 46.0822 32.0596 46.601 31.6219 47.0377Z" fill="#FF9D33" stroke="black"/>
</svg>
