<svg width="30" height="38" viewBox="0 0 30 38" fill="none" xmlns="http://www.w3.org/2000/svg">
<path d="M10.8333 8.75033C10.8333 8.19779 11.0528 7.66789 11.4435 7.27719C11.8342 6.88649 12.3641 6.66699 12.9167 6.66699C13.4692 6.66699 13.9991 6.88649 14.3898 7.27719C14.7805 7.66789 15 8.19779 15 8.75033V18.0628L17.5208 18.3337L27.8125 22.8962C28.9167 23.3962 29.5833 24.5003 29.5833 25.7087V34.792C29.5208 36.5003 28.1667 37.8545 26.4583 37.917H12.9167C12.125 37.917 11.375 37.6045 10.8333 37.0212L0.625 28.2712L2.16667 26.667C2.5625 26.2295 3.125 26.0003 3.70833 26.0003H4.16667L10.8333 29.5837V8.75033ZM12.9167 0.416992C15.1268 0.416992 17.2464 1.29497 18.8092 2.85777C20.372 4.42057 21.25 6.54019 21.25 8.75033C21.25 11.8753 19.5833 14.5212 17.0833 15.9587V13.417C18.3542 12.2712 19.1667 10.6045 19.1667 8.75033C19.1667 7.09272 18.5082 5.50301 17.3361 4.33091C16.164 3.15881 14.5743 2.50033 12.9167 2.50033C11.2591 2.50033 9.66935 3.15881 8.49725 4.33091C7.32515 5.50301 6.66667 7.09272 6.66667 8.75033C6.66667 10.6045 7.47917 12.2712 8.75 13.417V15.9587C6.25 14.5212 4.58333 11.8753 4.58333 8.75033C4.58333 6.54019 5.46131 4.42057 7.02411 2.85777C8.58691 1.29497 10.7065 0.416992 12.9167 0.416992Z" fill="#9B9B9B"/>
</svg>
